# xmcd
#
# Track frame offsets:
#	150
#	13495
#	27757
#	42192
#	63340
#	66467
#	81157
#	108027
#	125557
#	145647
#	163117
#	179342
#	192892
#	199095
#	215457
#	231542
#	238940
#	252352
#	265650
#	274355
#	282507
#	296240
#
# Disc length: 4184 seconds
#
# Revision: 0
# Processed by: cddbd v1.5.1PL0 Copyright (c) Steve Scherf et al.
# Submitted via: EasyCDDAExtractor 4.5.0.2
#
DISCID=5c105616
DTITLE=Αρλέτα - Τσάι γιασεμιού  - Ζητάτε να σας πω
DYEAR=1900
DGENRE=
TTITLE0=Τσάι γιασεμιού - Τσάι γιασεμιού
TTITLE1=Τσάι γιασεμιού -Αυτόματος τηλεφωνητής
TTITLE2=Τσάι γιασεμιού - Το στραγάλι
TTITLE3=Τσάι γιασεμιού - Το μπαρ της Τέτης και της Κατερίνας
TTITLE4=Τσάι γιασεμιού - Σαν αλήθεια σαν ψέμα
TTITLE5=Τσάι γιασεμιού - Το τρυφερό σου ρόζ
TTITLE6=Τσάι γιασεμιού - Batida de coco
TTITLE7=Τσάι γιασεμιού - Όνειρα ζαχαρωτά
TTITLE8=Τσάι γιασεμιού - Ο Τάκης
TTITLE9=Τσάι γιασεμιού - Τα ήσυχα βράδια
TTITLE10=Ζητάτε να σας πω - ’σε τον παλιόκοσμο να λέει
TTITLE11=Ζητάτε να σας πω  - Θα ξανάρθεις
TTITLE12=Ζητάτε να σας πω - Ψεύτικα βγήκανε όσα ονειρεύτηκα
TTITLE13=Ζητάτε να σας πω - Ας ερχόσουν για λίγο
TTITLE14=Ζητάτε να σας πω - Δυό πράσινα μάτια
TTITLE15=Ζητάτε να σας πω - Καινούρια ζωή
TTITLE16=Ζητάτε να σας πω - Ζητάτε να σας πω
TTITLE17=Ζητάτε να σας πω - Ήταν γραμμένο στη ζωή να σε γνωρίσω
TTITLE18=Ζητάτε να σας πω - Ήρθες αργά
TTITLE19=Ζητάτε να σας πω - Χωρίς φιλί
TTITLE20=Ζητάτε να σας πω - Από μέσα πεθαμένος
TTITLE21=Ζητάτε να σας πω - Πάμε στο άγνωστο με βάρκα την ελπίδα
EXTD=
EXTT0=
EXTT1=
EXTT2=
EXTT3=
EXTT4=
EXTT5=
EXTT6=
EXTT7=
EXTT8=
EXTT9=
EXTT10=
EXTT11=
EXTT12=
EXTT13=
EXTT14=
EXTT15=
EXTT16=
EXTT17=
EXTT18=
EXTT19=
EXTT20=
EXTT21=
PLAYORDER=
